<?xml version="1.0" encoding="UTF-8" standalone="no" ?>
<!DOCTYPE svg PUBLIC "-//W3C//DTD SVG 1.1//EN" "http://www.w3.org/Graphics/SVG/1.1/DTD/svg11.dtd">
<svg xmlns="http://www.w3.org/2000/svg" version="1.1" width="24" height="24" viewBox="0 0 24 24" xml:space="preserve">
<desc>Created with Fabric.js 4.6.0</desc>
<defs>
</defs>
<g transform="matrix(1 0 0 1 12 11.86)" id="QmfotXEH6ygVV_eqjSGAk"  >
<path style="stroke: none; stroke-width: 1; stroke-dasharray: none; stroke-linecap: butt; stroke-dashoffset: 0; stroke-linejoin: miter; stroke-miterlimit: 4; fill: rgb(0,0,0); fill-rule: nonzero; opacity: 1;" vector-effect="non-scaling-stroke"  transform=" translate(-10, -10)" d="M 0 3 L 0 17 L 8 17 L 8 18 L 20 18 L 20 2 L 8 2 L 8 3 L 0 3 z M 10 9 L 13 9 L 13 6 L 15 6 L 15 9 L 18 9 L 18 11 L 15 11 L 15 14 L 13 14 L 13 11 L 10 11 z M 6 5 L 8 5 L 8 15 L 6 15 z M 2 5 L 4 5 L 4 15 L 2 15 z" stroke-linecap="round" />
</g>
</svg>